<?xml version="1.0"?>
<svg xmlns="http://www.w3.org/2000/svg" viewBox="0 0 80 80">
    <path d="M 15 10 C 12.250484 10 10 12.250484 10 15 L 10 65 C 10 67.749516 12.250484 70 15 70 L 65 70 C 67.749516 70 70 67.749516 70 65 L 70 15 C 70 12.250484 67.749516 10 65 10 L 15 10 z M 15 12 L 65 12 C 66.668484 12 68 13.331516 68 15 L 68 65 C 68 66.668484 66.668484 68 65 68 L 15 68 C 13.331516 68 12 66.668484 12 65 L 12 15 C 12 13.331516 13.331516 12 15 12 z M 18 17 A 1 1 0 0 0 17 18 A 1 1 0 0 0 18 19 A 1 1 0 0 0 19 18 A 1 1 0 0 0 18 17 z M 22 17 A 1 1 0 0 0 21 18 A 1 1 0 0 0 22 19 A 1 1 0 0 0 23 18 A 1 1 0 0 0 22 17 z M 26 17 A 1 1 0 0 0 25 18 A 1 1 0 0 0 26 19 A 1 1 0 0 0 27 18 A 1 1 0 0 0 26 17 z M 30 17 A 1 1 0 0 0 29 18 A 1 1 0 0 0 30 19 A 1 1 0 0 0 31 18 A 1 1 0 0 0 30 17 z M 34 17 A 1 1 0 0 0 33 18 A 1 1 0 0 0 34 19 A 1 1 0 0 0 35 18 A 1 1 0 0 0 34 17 z M 38 17 A 1 1 0 0 0 37 18 A 1 1 0 0 0 38 19 A 1 1 0 0 0 39 18 A 1 1 0 0 0 38 17 z M 42 17 A 1 1 0 0 0 41 18 A 1 1 0 0 0 42 19 A 1 1 0 0 0 43 18 A 1 1 0 0 0 42 17 z M 46 17 A 1 1 0 0 0 45 18 A 1 1 0 0 0 46 19 A 1 1 0 0 0 47 18 A 1 1 0 0 0 46 17 z M 50 17 A 1 1 0 0 0 49 18 A 1 1 0 0 0 50 19 A 1 1 0 0 0 51 18 A 1 1 0 0 0 50 17 z M 54 17 A 1 1 0 0 0 53 18 A 1 1 0 0 0 54 19 A 1 1 0 0 0 55 18 A 1 1 0 0 0 54 17 z M 58 17 A 1 1 0 0 0 57 18 A 1 1 0 0 0 58 19 A 1 1 0 0 0 59 18 A 1 1 0 0 0 58 17 z M 62 17 A 1 1 0 0 0 61 18 A 1 1 0 0 0 62 19 A 1 1 0 0 0 63 18 A 1 1 0 0 0 62 17 z M 18 21 A 1 1 0 0 0 17 22 A 1 1 0 0 0 18 23 A 1 1 0 0 0 19 22 A 1 1 0 0 0 18 21 z M 62 21 A 1 1 0 0 0 61 22 A 1 1 0 0 0 62 23 A 1 1 0 0 0 63 22 A 1 1 0 0 0 62 21 z M 18 25 A 1 1 0 0 0 17 26 A 1 1 0 0 0 18 27 A 1 1 0 0 0 19 26 A 1 1 0 0 0 18 25 z M 62 25 A 1 1 0 0 0 61 26 A 1 1 0 0 0 62 27 A 1 1 0 0 0 63 26 A 1 1 0 0 0 62 25 z M 31.515625 25.857422 L 25.857422 31.515625 L 34.34375 40 L 25.857422 48.484375 L 31.515625 54.142578 L 40 45.65625 L 48.484375 54.142578 L 54.142578 48.484375 L 45.65625 40 L 54.142578 31.515625 L 53.435547 30.808594 L 48.484375 25.857422 L 40 34.34375 L 31.515625 25.857422 z M 31.515625 28.685547 L 40 37.171875 L 48.484375 28.685547 L 51.314453 31.515625 L 42.828125 40 L 51.314453 48.484375 L 48.484375 51.314453 L 40 42.828125 L 31.515625 51.314453 L 28.685547 48.484375 L 37.171875 40 L 28.685547 31.515625 L 31.515625 28.685547 z M 18 29 A 1 1 0 0 0 17 30 A 1 1 0 0 0 18 31 A 1 1 0 0 0 19 30 A 1 1 0 0 0 18 29 z M 62 29 A 1 1 0 0 0 61 30 A 1 1 0 0 0 62 31 A 1 1 0 0 0 63 30 A 1 1 0 0 0 62 29 z M 18 33 A 1 1 0 0 0 17 34 A 1 1 0 0 0 18 35 A 1 1 0 0 0 19 34 A 1 1 0 0 0 18 33 z M 62 33 A 1 1 0 0 0 61 34 A 1 1 0 0 0 62 35 A 1 1 0 0 0 63 34 A 1 1 0 0 0 62 33 z M 18 37 A 1 1 0 0 0 17 38 A 1 1 0 0 0 18 39 A 1 1 0 0 0 19 38 A 1 1 0 0 0 18 37 z M 62 37 A 1 1 0 0 0 61 38 A 1 1 0 0 0 62 39 A 1 1 0 0 0 63 38 A 1 1 0 0 0 62 37 z M 18 41 A 1 1 0 0 0 17 42 A 1 1 0 0 0 18 43 A 1 1 0 0 0 19 42 A 1 1 0 0 0 18 41 z M 62 41 A 1 1 0 0 0 61 42 A 1 1 0 0 0 62 43 A 1 1 0 0 0 63 42 A 1 1 0 0 0 62 41 z M 18 45 A 1 1 0 0 0 17 46 A 1 1 0 0 0 18 47 A 1 1 0 0 0 19 46 A 1 1 0 0 0 18 45 z M 62 45 A 1 1 0 0 0 61 46 A 1 1 0 0 0 62 47 A 1 1 0 0 0 63 46 A 1 1 0 0 0 62 45 z M 18 49 A 1 1 0 0 0 17 50 A 1 1 0 0 0 18 51 A 1 1 0 0 0 19 50 A 1 1 0 0 0 18 49 z M 62 49 A 1 1 0 0 0 61 50 A 1 1 0 0 0 62 51 A 1 1 0 0 0 63 50 A 1 1 0 0 0 62 49 z M 18 53 A 1 1 0 0 0 17 54 A 1 1 0 0 0 18 55 A 1 1 0 0 0 19 54 A 1 1 0 0 0 18 53 z M 62 53 A 1 1 0 0 0 61 54 A 1 1 0 0 0 62 55 A 1 1 0 0 0 63 54 A 1 1 0 0 0 62 53 z M 18 57 A 1 1 0 0 0 17 58 A 1 1 0 0 0 18 59 A 1 1 0 0 0 19 58 A 1 1 0 0 0 18 57 z M 62 57 A 1 1 0 0 0 61 58 A 1 1 0 0 0 62 59 A 1 1 0 0 0 63 58 A 1 1 0 0 0 62 57 z M 18 61 A 1 1 0 0 0 17 62 A 1 1 0 0 0 18 63 A 1 1 0 0 0 19 62 A 1 1 0 0 0 18 61 z M 22 61 A 1 1 0 0 0 21 62 A 1 1 0 0 0 22 63 A 1 1 0 0 0 23 62 A 1 1 0 0 0 22 61 z M 26 61 A 1 1 0 0 0 25 62 A 1 1 0 0 0 26 63 A 1 1 0 0 0 27 62 A 1 1 0 0 0 26 61 z M 30 61 A 1 1 0 0 0 29 62 A 1 1 0 0 0 30 63 A 1 1 0 0 0 31 62 A 1 1 0 0 0 30 61 z M 34 61 A 1 1 0 0 0 33 62 A 1 1 0 0 0 34 63 A 1 1 0 0 0 35 62 A 1 1 0 0 0 34 61 z M 38 61 A 1 1 0 0 0 37 62 A 1 1 0 0 0 38 63 A 1 1 0 0 0 39 62 A 1 1 0 0 0 38 61 z M 42 61 A 1 1 0 0 0 41 62 A 1 1 0 0 0 42 63 A 1 1 0 0 0 43 62 A 1 1 0 0 0 42 61 z M 46 61 A 1 1 0 0 0 45 62 A 1 1 0 0 0 46 63 A 1 1 0 0 0 47 62 A 1 1 0 0 0 46 61 z M 50 61 A 1 1 0 0 0 49 62 A 1 1 0 0 0 50 63 A 1 1 0 0 0 51 62 A 1 1 0 0 0 50 61 z M 54 61 A 1 1 0 0 0 53 62 A 1 1 0 0 0 54 63 A 1 1 0 0 0 55 62 A 1 1 0 0 0 54 61 z M 58 61 A 1 1 0 0 0 57 62 A 1 1 0 0 0 58 63 A 1 1 0 0 0 59 62 A 1 1 0 0 0 58 61 z M 62 61 A 1 1 0 0 0 61 62 A 1 1 0 0 0 62 63 A 1 1 0 0 0 63 62 A 1 1 0 0 0 62 61 z"/>
</svg>
