<?xml version="1.0"?>
<svg xmlns="http://www.w3.org/2000/svg" viewBox="0 0 80 80">
    <path style="line-height:normal;text-indent:0;text-align:start;text-decoration-line:none;text-decoration-style:solid;text-decoration-color:#000;text-transform:none;block-progression:tb;isolation:auto;mix-blend-mode:normal" d="M 10 14 L 10 26 L 70 26 L 70 25 L 70 14 L 10 14 z M 12 16 L 68 16 L 68 18 A 1 1 0 0 0 67 19 A 1 1 0 0 0 68 20 L 68 24 L 12 24 L 12 20 A 1 1 0 0 0 13 19 A 1 1 0 0 0 12 18 L 12 16 z M 16 18 A 1 1 0 0 0 15 19 A 1 1 0 0 0 16 20 A 1 1 0 0 0 17 19 A 1 1 0 0 0 16 18 z M 20 18 A 1 1 0 0 0 19 19 A 1 1 0 0 0 20 20 A 1 1 0 0 0 21 19 A 1 1 0 0 0 20 18 z M 24 18 A 1 1 0 0 0 23 19 A 1 1 0 0 0 24 20 A 1 1 0 0 0 25 19 A 1 1 0 0 0 24 18 z M 28 18 A 1 1 0 0 0 27 19 A 1 1 0 0 0 28 20 A 1 1 0 0 0 29 19 A 1 1 0 0 0 28 18 z M 32 18 A 1 1 0 0 0 31 19 A 1 1 0 0 0 32 20 A 1 1 0 0 0 33 19 A 1 1 0 0 0 32 18 z M 36 18 A 1 1 0 0 0 35 19 A 1 1 0 0 0 36 20 A 1 1 0 0 0 37 19 A 1 1 0 0 0 36 18 z M 40 18 A 1 1 0 0 0 39 19 A 1 1 0 0 0 40 20 A 1 1 0 0 0 41 19 A 1 1 0 0 0 40 18 z M 44 18 A 1 1 0 0 0 43 19 A 1 1 0 0 0 44 20 A 1 1 0 0 0 45 19 A 1 1 0 0 0 44 18 z M 48 18 A 1 1 0 0 0 47 19 A 1 1 0 0 0 48 20 A 1 1 0 0 0 49 19 A 1 1 0 0 0 48 18 z M 52 18 A 1 1 0 0 0 51 19 A 1 1 0 0 0 52 20 A 1 1 0 0 0 53 19 A 1 1 0 0 0 52 18 z M 56 18 A 1 1 0 0 0 55 19 A 1 1 0 0 0 56 20 A 1 1 0 0 0 57 19 A 1 1 0 0 0 56 18 z M 60 18 A 1 1 0 0 0 59 19 A 1 1 0 0 0 60 20 A 1 1 0 0 0 61 19 A 1 1 0 0 0 60 18 z M 64 18 A 1 1 0 0 0 63 19 A 1 1 0 0 0 64 20 A 1 1 0 0 0 65 19 A 1 1 0 0 0 64 18 z M 10 34 L 10 46 L 70 46 L 70 45 L 70 34 L 10 34 z M 12 36 L 68 36 L 68 38 A 1 1 0 0 0 67 39 A 1 1 0 0 0 68 40 L 68 44 L 12 44 L 12 40 A 1 1 0 0 0 13 39 A 1 1 0 0 0 12 38 L 12 36 z M 16 38 A 1 1 0 0 0 15 39 A 1 1 0 0 0 16 40 A 1 1 0 0 0 17 39 A 1 1 0 0 0 16 38 z M 20 38 A 1 1 0 0 0 19 39 A 1 1 0 0 0 20 40 A 1 1 0 0 0 21 39 A 1 1 0 0 0 20 38 z M 24 38 A 1 1 0 0 0 23 39 A 1 1 0 0 0 24 40 A 1 1 0 0 0 25 39 A 1 1 0 0 0 24 38 z M 28 38 A 1 1 0 0 0 27 39 A 1 1 0 0 0 28 40 A 1 1 0 0 0 29 39 A 1 1 0 0 0 28 38 z M 32 38 A 1 1 0 0 0 31 39 A 1 1 0 0 0 32 40 A 1 1 0 0 0 33 39 A 1 1 0 0 0 32 38 z M 36 38 A 1 1 0 0 0 35 39 A 1 1 0 0 0 36 40 A 1 1 0 0 0 37 39 A 1 1 0 0 0 36 38 z M 40 38 A 1 1 0 0 0 39 39 A 1 1 0 0 0 40 40 A 1 1 0 0 0 41 39 A 1 1 0 0 0 40 38 z M 44 38 A 1 1 0 0 0 43 39 A 1 1 0 0 0 44 40 A 1 1 0 0 0 45 39 A 1 1 0 0 0 44 38 z M 48 38 A 1 1 0 0 0 47 39 A 1 1 0 0 0 48 40 A 1 1 0 0 0 49 39 A 1 1 0 0 0 48 38 z M 52 38 A 1 1 0 0 0 51 39 A 1 1 0 0 0 52 40 A 1 1 0 0 0 53 39 A 1 1 0 0 0 52 38 z M 56 38 A 1 1 0 0 0 55 39 A 1 1 0 0 0 56 40 A 1 1 0 0 0 57 39 A 1 1 0 0 0 56 38 z M 60 38 A 1 1 0 0 0 59 39 A 1 1 0 0 0 60 40 A 1 1 0 0 0 61 39 A 1 1 0 0 0 60 38 z M 64 38 A 1 1 0 0 0 63 39 A 1 1 0 0 0 64 40 A 1 1 0 0 0 65 39 A 1 1 0 0 0 64 38 z M 10 54 L 10 66 L 70 66 L 70 65 L 70 54 L 10 54 z M 12 56 L 68 56 L 68 58 A 1 1 0 0 0 67 59 A 1 1 0 0 0 68 60 L 68 64 L 12 64 L 12 60 A 1 1 0 0 0 13 59 A 1 1 0 0 0 12 58 L 12 56 z M 16 58 A 1 1 0 0 0 15 59 A 1 1 0 0 0 16 60 A 1 1 0 0 0 17 59 A 1 1 0 0 0 16 58 z M 20 58 A 1 1 0 0 0 19 59 A 1 1 0 0 0 20 60 A 1 1 0 0 0 21 59 A 1 1 0 0 0 20 58 z M 24 58 A 1 1 0 0 0 23 59 A 1 1 0 0 0 24 60 A 1 1 0 0 0 25 59 A 1 1 0 0 0 24 58 z M 28 58 A 1 1 0 0 0 27 59 A 1 1 0 0 0 28 60 A 1 1 0 0 0 29 59 A 1 1 0 0 0 28 58 z M 32 58 A 1 1 0 0 0 31 59 A 1 1 0 0 0 32 60 A 1 1 0 0 0 33 59 A 1 1 0 0 0 32 58 z M 36 58 A 1 1 0 0 0 35 59 A 1 1 0 0 0 36 60 A 1 1 0 0 0 37 59 A 1 1 0 0 0 36 58 z M 40 58 A 1 1 0 0 0 39 59 A 1 1 0 0 0 40 60 A 1 1 0 0 0 41 59 A 1 1 0 0 0 40 58 z M 44 58 A 1 1 0 0 0 43 59 A 1 1 0 0 0 44 60 A 1 1 0 0 0 45 59 A 1 1 0 0 0 44 58 z M 48 58 A 1 1 0 0 0 47 59 A 1 1 0 0 0 48 60 A 1 1 0 0 0 49 59 A 1 1 0 0 0 48 58 z M 52 58 A 1 1 0 0 0 51 59 A 1 1 0 0 0 52 60 A 1 1 0 0 0 53 59 A 1 1 0 0 0 52 58 z M 56 58 A 1 1 0 0 0 55 59 A 1 1 0 0 0 56 60 A 1 1 0 0 0 57 59 A 1 1 0 0 0 56 58 z M 60 58 A 1 1 0 0 0 59 59 A 1 1 0 0 0 60 60 A 1 1 0 0 0 61 59 A 1 1 0 0 0 60 58 z M 64 58 A 1 1 0 0 0 63 59 A 1 1 0 0 0 64 60 A 1 1 0 0 0 65 59 A 1 1 0 0 0 64 58 z"/>
</svg>
