<?xml version="1.0" encoding="iso-8859-1"?>
<!-- Generator: Adobe Illustrator 19.1.1, SVG Export Plug-In . SVG Version: 6.00 Build 0)  -->
<svg version="1.1" id="Layer_1" xmlns="http://www.w3.org/2000/svg" xmlns:xlink="http://www.w3.org/1999/xlink" x="0px" y="0px"
	 viewBox="0 0 48 48" style="enable-background:new 0 0 48 48;" xml:space="preserve">
<g>
	<circle style="fill:#F44336;" cx="32" cy="33" r="6"/>
	<polygon style="fill:#F44336;" points="35,9 35,33 38,33 38,15.6 43,18.2 43,13.2 	"/>
</g>
<g>
	<path style="fill:#B0BEC5;" d="M24.587,30H5v2h19.069C24.156,31.301,24.331,30.631,24.587,30z"/>
	<path style="fill:#B0BEC5;" d="M25.079,37H5v2h21.721C26.071,38.428,25.516,37.754,25.079,37z"/>
</g>
<path style="fill:#607D8B;" d="M18.964,17.8c0.073-0.291,0.073-0.582,0.073-0.8s0-0.582-0.073-0.8l1.673-1.236
	c0.145-0.145,0.218-0.364,0.145-0.509l-1.673-2.836c-0.073-0.145-0.291-0.218-0.509-0.145l-1.891,0.873
	c-0.436-0.364-0.945-0.655-1.455-0.873l-0.218-2.109C15.036,9.145,14.818,9,14.673,9h-3.345c-0.145,0-0.364,0.145-0.364,0.364
	l-0.218,2.109c-0.509,0.145-1.018,0.436-1.455,0.8L7.4,11.4c-0.218-0.073-0.436,0-0.509,0.145l-1.673,2.909
	c-0.073,0.145,0,0.364,0.145,0.509L7.036,16.2c-0.073,0.291-0.073,0.582-0.073,0.8s0,0.582,0.073,0.8l-1.673,1.236
	c-0.145,0.145-0.218,0.364-0.145,0.509l1.673,2.836C6.964,22.527,7.182,22.6,7.4,22.527l1.891-0.873
	c0.436,0.364,0.945,0.655,1.455,0.873l0.218,2.109c0,0.218,0.218,0.364,0.364,0.364H14.6c0.218,0,0.364-0.145,0.364-0.364
	l0.218-2.109c0.509-0.218,1.018-0.509,1.455-0.873l1.891,0.873c0.218,0.073,0.436,0,0.509-0.145l1.673-2.836
	c0.073-0.145,0.073-0.436-0.145-0.509L18.964,17.8z M13,20c-1.673,0-3-1.327-3-3s1.327-3,3-3s3,1.327,3,3S14.673,20,13,20"/>
<g>
	<g>
		<path style="fill:#B0BEC5;" d="M18.151,9c1.078,0.221,2.308,0.936,2.698,1.631L21.065,11H33V9H18.151z"/>
	</g>
	<path style="fill:#B0BEC5;" d="M22.05,16.378l-0.225,0.194l-0.603,0.445l0.431,0.333c0.267,0.163,0.478,0.393,0.658,0.649H33v-2
		H22.359C22.268,16.132,22.168,16.26,22.05,16.378z"/>
	<g>
		<path style="fill:#B0BEC5;" d="M33,23H20.994l-0.217,0.368c-0.389,0.696-1.578,1.411-2.634,1.632H33V23z"/>
	</g>
</g>
<path style="fill:none;stroke:#455A64;stroke-width:2;stroke-miterlimit:10;" d="M13,14c-1.65,0-3,1.35-3,3s1.35,3,3,3s3-1.35,3-3
	S14.65,14,13,14"/>
</svg>
